<svg width="39.99999999999999" height="39.99999999999999" xmlns="http://www.w3.org/2000/svg" fill="none">

 <g>
  <title>Layer 1</title>
  <path id="svg_1" fill="#35D07F" d="m24.19539,27.34119c6.3949,0 11.5789,-5.184 11.5789,-11.5789c0,-6.395 -5.184,-11.579 -11.5789,-11.579c-6.395,0 -11.579,5.184 -11.579,11.579c0,6.3949 5.184,11.5789 11.579,11.5789zm0,4.2106c-8.72,0 -15.7895,-7.0695 -15.7895,-15.7895c0,-8.72 7.0695,-15.7895 15.7895,-15.7895c8.72,0 15.7895,7.0695 15.7895,15.7895c0,8.72 -7.0695,15.7895 -15.7895,15.7895z"/>
  <path id="svg_2" fill="#FBCC5C" d="m15.77449,35.76239c6.3949,0 11.5789,-5.184 11.5789,-11.579c0,-6.3949 -5.184,-11.5789 -11.5789,-11.5789c-6.395,0 -11.579,5.184 -11.579,11.5789c0,6.395 5.184,11.579 11.579,11.579zm0,4.2105c-8.72,0 -15.7895,-7.0695 -15.7895,-15.7895c0,-8.72 7.0695,-15.7895 15.7895,-15.7895c8.72,0 15.7895,7.0695 15.7895,15.7895c0,8.72 -7.0695,15.7895 -15.7895,15.7895z"/>
  <path id="svg_3" fill="#ECFF8F" d="m24.71709,31.55189c1.0948,-1.3268 1.8795,-2.8812 2.2968,-4.5499c1.6687,-0.4172 3.2232,-1.2018 4.5499,-2.2965c-0.0605,1.9326 -0.4767,3.8374 -1.2278,5.619c-1.7816,0.7509 -3.6864,1.167 -5.6189,1.2274zm-11.7613,-18.6081c-1.6687,0.4172 -3.2231,1.2018 -4.5499,2.2965c0.0605,-1.9326 0.4767,-3.8374 1.2278,-5.619c1.7816,-0.7509 3.6864,-1.167 5.6189,-1.2274c-1.0947,1.3268 -1.8795,2.8812 -2.2968,4.5499z"/>
 </g>
</svg>