<svg width="24" height="24" viewBox="0 0 24 24" fill="none" xmlns="http://www.w3.org/2000/svg">
<path d="M15.5217 0.458496V6.26077H21.324L15.5217 0.458496Z" fill="#B8B5F8"/>
<path d="M14.7391 7.82611C14.3071 7.82611 13.9565 7.47553 13.9565 7.04348V0H3.78262C3.35058 0 3 0.350578 3 0.782625V23.2174C3 23.6495 3.35058 24 3.78262 24H21C21.432 24 21.7826 23.6495 21.7826 23.2174V7.82611H14.7391ZM13.1739 19.3043H6.91303C6.48098 19.3043 6.13041 18.9538 6.13041 18.5217C6.13041 18.0897 6.48098 17.7391 6.91303 17.7391H13.1739C13.6059 17.7391 13.9565 18.0897 13.9565 18.5217C13.9565 18.9538 13.606 19.3043 13.1739 19.3043ZM17.8696 16.1739H6.91303C6.48098 16.1739 6.13041 15.8233 6.13041 15.3913C6.13041 14.9592 6.48098 14.6086 6.91303 14.6086H17.8696C18.3016 14.6086 18.6522 14.9592 18.6522 15.3913C18.6522 15.8233 18.3016 16.1739 17.8696 16.1739ZM17.8696 13.0435H6.91303C6.48098 13.0435 6.13041 12.6929 6.13041 12.2609C6.13041 11.8288 6.48098 11.4782 6.91303 11.4782H17.8696C18.3016 11.4782 18.6522 11.8288 18.6522 12.2609C18.6522 12.6929 18.3016 13.0435 17.8696 13.0435Z" fill="#B8B5F8"/>
</svg>
