<svg width="295" height="71" viewBox="0 0 295 71" fill="none" xmlns="http://www.w3.org/2000/svg">
<path d="M101.825 13.671C96.4698 13.671 92.4378 16.065 89.9178 19.908V1.88998H84.4368V45.99H89.9178V40.572C92.4378 44.415 96.4698 46.809 101.825 46.809C110.582 46.809 117.764 39.564 117.764 30.24C117.764 20.916 110.582 13.671 101.825 13.671ZM101.132 41.517C94.7688 41.517 89.9178 36.666 89.9178 30.24C89.9178 23.814 94.7688 18.963 101.132 18.963C107.432 18.963 112.283 23.814 112.283 30.24C112.283 36.666 107.432 41.517 101.132 41.517Z" fill="#161B25"/>
<path d="M134.825 19.782V14.49H129.344V45.99H134.825V29.295C134.825 21.861 139.928 19.467 144.653 19.656V13.923C140.684 13.923 136.841 15.372 134.825 19.782Z" fill="#161B25"/>
<path d="M157.828 8.75698C159.844 8.75698 161.482 7.11898 161.482 5.10298C161.482 3.08698 159.844 1.38599 157.828 1.38599C155.749 1.38599 154.111 3.08698 154.111 5.10298C154.111 7.11898 155.749 8.75698 157.828 8.75698ZM155.056 45.99H160.537V14.49H155.056V45.99Z" fill="#161B25"/>
<path d="M200.021 1.88998V19.908C197.501 16.065 193.469 13.671 188.114 13.671C179.357 13.671 172.175 20.916 172.175 30.24C172.175 39.564 179.357 46.809 188.114 46.809C193.469 46.809 197.501 44.415 200.021 40.572V45.99H205.502V1.88998H200.021ZM188.807 41.517C182.507 41.517 177.656 36.666 177.656 30.24C177.656 23.814 182.507 18.963 188.807 18.963C195.17 18.963 200.021 23.814 200.021 30.24C200.021 36.666 195.17 41.517 188.807 41.517Z" fill="#161B25"/>
<path d="M244.991 14.49V19.908C242.471 16.065 238.439 13.671 233.147 13.671C224.201 13.671 217.082 20.916 217.082 30.051C217.082 39.249 224.201 46.494 233.147 46.494C238.439 46.494 242.471 44.037 244.991 40.194V44.667C244.991 50.589 241.022 54.306 234.47 54.306C228.296 54.306 225.65 51.975 224.201 49.014L219.413 51.723C221.996 56.7 227.288 59.409 234.344 59.409C242.534 59.409 250.409 54.495 250.409 44.667V14.49H244.991ZM233.777 41.265C227.414 41.265 222.563 36.414 222.563 30.051C222.563 23.751 227.414 18.9 233.777 18.9C240.14 18.9 244.991 23.751 244.991 30.051C244.991 36.414 240.14 41.265 233.777 41.265Z" fill="#161B25"/>
<path d="M267.596 32.76H293.993C294.119 31.941 294.182 31.122 294.182 30.303C294.182 21.483 288.008 13.671 278.495 13.671C268.667 13.671 261.989 20.916 261.989 30.24C261.989 39.69 268.73 46.809 278.873 46.809C285.173 46.809 289.961 43.974 292.733 39.69L288.071 37.044C286.496 39.627 283.346 41.643 278.999 41.643C273.14 41.643 268.667 38.43 267.596 32.76ZM278.495 18.837C283.22 18.837 287.693 21.735 288.638 27.972H267.596C268.478 22.491 272.573 18.837 278.495 18.837Z" fill="#161B25"/>
<path d="M27.846 14.49V19.908C25.326 16.065 21.294 13.671 15.939 13.671C7.182 13.671 0 20.916 0 30.24C0 39.564 7.182 46.809 15.939 46.809C21.294 46.809 25.326 44.415 27.846 40.572V45.99H33.327V14.49H27.846ZM16.632 41.517C10.332 41.517 5.481 36.666 5.481 30.24C5.481 23.814 10.332 18.963 16.632 18.963C22.995 18.963 27.846 23.814 27.846 30.24C27.846 36.666 22.995 41.517 16.632 41.517Z" fill="#8C86F5"/>
<path d="M46.6712 45.99H52.1522V0H46.6712V45.99Z" fill="#8C86F5"/>
<path d="M65.554 45.99H71.035V0H65.554V45.99Z" fill="#8C86F5"/>
<path d="M4.92766 60.8461C3.71806 60.8461 2.80729 61.3869 2.23807 62.255V58.185H1V68.1465H2.23807V66.9226C2.80729 67.7907 3.71806 68.3315 4.92766 68.3315C6.90573 68.3315 8.52802 66.6949 8.52802 64.5888C8.52802 62.4827 6.90573 60.8461 4.92766 60.8461ZM4.77113 67.1361C3.33383 67.1361 2.23807 66.0403 2.23807 64.5888C2.23807 63.1373 3.33383 62.0415 4.77113 62.0415C6.19419 62.0415 7.28995 63.1373 7.28995 64.5888C7.28995 66.0403 6.19419 67.1361 4.77113 67.1361Z" fill="#343536"/>
<path d="M14.6939 61.0311L12.6447 66.6096L10.2255 61.0311H8.90202L12.0043 68.118L11.8762 68.3884C11.5062 69.3276 10.9085 69.9111 9.95509 69.8399V70.9926C11.4066 71.0922 12.5166 70.1814 13.1143 68.5876L16.0173 61.0311H14.6939Z" fill="#343536"/>
<path d="M27.2973 68.1465H28.7061L24.9919 58.185H23.4977L19.7835 68.1465H21.1923L22.0035 65.9122H26.4861L27.2973 68.1465ZM22.4588 64.6742L24.2377 59.7646L26.0307 64.6742H22.4588Z" fill="#343536"/>
<path d="M33.4958 58.185H29.8812V68.1465H31.2047V64.5888H33.4958C35.3316 64.5888 36.712 63.1942 36.712 61.3869C36.712 59.5654 35.3316 58.185 33.4958 58.185ZM33.4958 63.3507H31.2047V59.4231H33.4958C34.5916 59.4231 35.4027 60.2484 35.4027 61.3869C35.4027 62.5111 34.5916 63.3507 33.4958 63.3507Z" fill="#343536"/>
<path d="M45.4113 58.185H43.9313L41.2275 62.8527L38.5237 58.185H37.0437L40.5587 64.105V68.1465H41.8821V64.1192L45.4113 58.185Z" fill="#343536"/>
<path d="M49.2319 68.3315C51.2669 68.3315 52.6758 67.2215 52.6758 65.4711C52.6758 63.55 51.0392 63.0377 49.3031 62.4684C47.9085 62.0273 47.2112 61.6857 47.2112 60.7607C47.2112 59.85 47.9512 59.2808 49.0185 59.2808C50.2281 59.2808 50.9254 59.9638 51.2811 60.8177L52.3911 60.1773C51.8361 58.925 50.655 58 49.0185 58C47.3535 58 45.8877 59.0246 45.8877 60.8177C45.8877 62.6677 47.4246 63.1657 49.0185 63.678C50.4842 64.1334 51.3665 64.475 51.3665 65.4996C51.3665 66.3961 50.6692 67.0365 49.2604 67.0365C47.8089 67.0365 46.955 66.3249 46.5993 65.2292L45.4608 65.8838C45.9873 67.378 47.3393 68.3315 49.2319 68.3315Z" fill="#343536"/>
<path d="M62.2187 61.0311L60.6534 66.453L58.9742 61.0311H57.7788L56.0996 66.4388L54.5342 61.0311H53.2392L55.445 68.1465H56.7115L58.3765 62.8811L60.0415 68.1465H61.308L63.5137 61.0311H62.2187Z" fill="#343536"/>
<path d="M70.4014 61.0311V62.255C69.8321 61.3869 68.9214 60.8461 67.7118 60.8461C65.7337 60.8461 64.1114 62.4827 64.1114 64.5888C64.1114 66.6949 65.7337 68.3315 67.7118 68.3315C68.9214 68.3315 69.8321 67.7907 70.4014 66.9226V68.1465H71.6394V61.0311H70.4014ZM67.8683 67.1361C66.4453 67.1361 65.3495 66.0403 65.3495 64.5888C65.3495 63.1373 66.4453 62.0415 67.8683 62.0415C69.3056 62.0415 70.4014 63.1373 70.4014 64.5888C70.4014 66.0403 69.3056 67.1361 67.8683 67.1361Z" fill="#343536"/>
<path d="M77.4429 60.8461C76.2333 60.8461 75.3225 61.3869 74.7533 62.255V61.0311H73.5152V70.9926H74.7533V66.9226C75.3225 67.7907 76.2333 68.3315 77.4429 68.3315C79.4209 68.3315 81.0432 66.6949 81.0432 64.5888C81.0432 62.4827 79.4209 60.8461 77.4429 60.8461ZM77.2863 67.1361C75.849 67.1361 74.7533 66.0403 74.7533 64.5888C74.7533 63.1373 75.849 62.0415 77.2863 62.0415C78.7094 62.0415 79.8052 63.1373 79.8052 64.5888C79.8052 66.0403 78.7094 67.1361 77.2863 67.1361Z" fill="#343536"/>
<path d="M91.9413 59.4373V58.185H86.2063V68.1465H87.5298V63.92H91.7563V62.6677H87.5298V59.4373H91.9413Z" fill="#343536"/>
<path d="M96.7601 68.3315C98.8378 68.3315 100.517 66.6949 100.517 64.5888C100.517 62.4827 98.8378 60.8461 96.7601 60.8461C94.6824 60.8461 93.0175 62.4827 93.0175 64.5888C93.0175 66.6949 94.6824 68.3315 96.7601 68.3315ZM96.7601 67.1219C95.3513 67.1219 94.2555 66.0261 94.2555 64.5888C94.2555 63.1515 95.3513 62.0557 96.7601 62.0557C98.1832 62.0557 99.2789 63.1515 99.2789 64.5888C99.2789 66.0261 98.1832 67.1219 96.7601 67.1219Z" fill="#343536"/>
<path d="M106.886 61.0311V64.8023C106.886 66.4815 105.961 67.1503 104.823 67.1503C103.727 67.1503 103.058 66.4957 103.058 65.3288V61.0311H101.82V65.3999C101.82 67.2215 102.916 68.3315 104.581 68.3315C105.577 68.3315 106.36 67.9615 106.886 67.1219V68.1465H108.124V61.0311H106.886Z" fill="#343536"/>
<path d="M113.553 60.8461C112.556 60.8461 111.774 61.2161 111.247 62.0557V61.0311H110.009V68.1465H111.247V64.3753C111.247 62.6961 112.172 62.0273 113.311 62.0273C114.406 62.0273 115.075 62.6819 115.075 63.8488V68.1465H116.313V63.7776C116.313 61.9561 115.218 60.8461 113.553 60.8461Z" fill="#343536"/>
<path d="M123.933 58.185V62.255C123.364 61.3869 122.453 60.8461 121.244 60.8461C119.265 60.8461 117.643 62.4827 117.643 64.5888C117.643 66.6949 119.265 68.3315 121.244 68.3315C122.453 68.3315 123.364 67.7907 123.933 66.9226V68.1465H125.171V58.185H123.933ZM121.4 67.1361C119.977 67.1361 118.881 66.0403 118.881 64.5888C118.881 63.1373 119.977 62.0415 121.4 62.0415C122.837 62.0415 123.933 63.1373 123.933 64.5888C123.933 66.0403 122.837 67.1361 121.4 67.1361Z" fill="#343536"/>
<path d="M132.938 61.0311V62.255C132.369 61.3869 131.458 60.8461 130.249 60.8461C128.271 60.8461 126.649 62.4827 126.649 64.5888C126.649 66.6949 128.271 68.3315 130.249 68.3315C131.458 68.3315 132.369 67.7907 132.938 66.9226V68.1465H134.177V61.0311H132.938ZM130.405 67.1361C128.982 67.1361 127.887 66.0403 127.887 64.5888C127.887 63.1373 128.982 62.0415 130.405 62.0415C131.843 62.0415 132.938 63.1373 132.938 64.5888C132.938 66.0403 131.843 67.1361 130.405 67.1361Z" fill="#343536"/>
<path d="M139.923 62.2265V61.0311H138.03V59.0388L136.792 59.4088V61.0311H135.383V62.2265H136.792V66.083C136.792 67.8618 137.788 68.4311 139.923 68.1465V67.0365C138.657 67.0934 138.03 67.1645 138.03 66.083V62.2265H139.923Z" fill="#343536"/>
<path d="M142.015 59.7361C142.47 59.7361 142.84 59.3661 142.84 58.9108C142.84 58.4554 142.47 58.0712 142.015 58.0712C141.545 58.0712 141.175 58.4554 141.175 58.9108C141.175 59.3661 141.545 59.7361 142.015 59.7361ZM141.389 68.1465H142.627V61.0311H141.389V68.1465Z" fill="#343536"/>
<path d="M147.86 68.3315C149.938 68.3315 151.617 66.6949 151.617 64.5888C151.617 62.4827 149.938 60.8461 147.86 60.8461C145.782 60.8461 144.117 62.4827 144.117 64.5888C144.117 66.6949 145.782 68.3315 147.86 68.3315ZM147.86 67.1219C146.451 67.1219 145.355 66.0261 145.355 64.5888C145.355 63.1515 146.451 62.0557 147.86 62.0557C149.283 62.0557 150.379 63.1515 150.379 64.5888C150.379 66.0261 149.283 67.1219 147.86 67.1219Z" fill="#343536"/>
<path d="M156.62 60.8461C155.624 60.8461 154.841 61.2161 154.314 62.0557V61.0311H153.076V68.1465H154.314V64.3753C154.314 62.6961 155.239 62.0273 156.378 62.0273C157.474 62.0273 158.142 62.6819 158.142 63.8488V68.1465H159.38V63.7776C159.38 61.9561 158.285 60.8461 156.62 60.8461Z" fill="#343536"/>
</svg>
