<svg width="24" height="24" viewBox="0 0 24 24" fill="none" xmlns="http://www.w3.org/2000/svg">
<path d="M22.085 5.11547L24 3.37989V3H17.366L12.638 14.1486L7.259 3H0.303V3.37989L2.54 5.93116C2.758 6.11968 2.872 6.39537 2.843 6.67295V16.6989C2.912 17.0599 2.788 17.4313 2.52 17.6937L0 20.5869V20.9621H7.145V20.5822L4.625 17.6937C4.352 17.4303 4.223 17.0656 4.278 16.6989V8.02674L10.55 20.9668H11.279L16.672 8.02674V18.3351C16.672 18.6069 16.672 18.6628 16.484 18.8409L14.544 20.6192V21H23.956V20.6201L22.086 18.8855C21.922 18.768 21.837 18.5709 21.872 18.3796V5.62137C21.837 5.42905 21.921 5.232 22.085 5.11547Z" fill="#B8B5F8"/>
</svg>
