<svg width="24" height="24" viewBox="0 0 24 24" fill="none" xmlns="http://www.w3.org/2000/svg">
<path d="M0.423911 12.0694L5.95399 14.1437L8.09447 21.0617C8.23143 21.5048 8.77055 21.6686 9.12839 21.3745L12.211 18.8491C12.5341 18.5845 12.9943 18.5713 13.332 18.8176L18.8918 22.8743C19.2746 23.1539 19.817 22.9431 19.913 22.4783L23.9858 2.78947C24.0906 2.28167 23.5942 1.85805 23.113 2.04506L0.417431 10.8439C-0.142649 11.061 -0.137769 11.8579 0.423911 12.0694ZM7.74951 13.0395L18.5574 6.34982C18.7516 6.22995 18.9514 6.49389 18.7846 6.64938L9.86503 14.9818C9.55151 15.2751 9.34927 15.6676 9.29199 16.0937L8.98815 18.3566C8.94791 18.6587 8.52559 18.6887 8.44263 18.3963L7.27407 14.2698C7.14023 13.7992 7.33527 13.2965 7.74951 13.0395Z" fill="#B8B5F8"/>
</svg>
