<svg width="24" height="24" viewBox="0 0 24 24" fill="none" xmlns="http://www.w3.org/2000/svg">
<path d="M24 4.3085C23.1075 4.7 22.1565 4.9595 21.165 5.0855C22.185 4.4765 22.9635 3.5195 23.3295 2.366C22.3785 2.933 21.3285 3.3335 20.2095 3.557C19.3065 2.5955 18.0195 2 16.6155 2C13.8915 2 11.6985 4.211 11.6985 6.9215C11.6985 7.3115 11.7315 7.6865 11.8125 8.0435C7.722 7.844 4.1025 5.8835 1.671 2.897C1.2465 3.6335 0.9975 4.4765 0.9975 5.384C0.9975 7.088 1.875 8.5985 3.183 9.473C2.3925 9.458 1.617 9.2285 0.96 8.867C0.96 8.882 0.96 8.9015 0.96 8.921C0.96 11.312 2.6655 13.298 4.902 13.7555C4.5015 13.865 4.065 13.9175 3.612 13.9175C3.297 13.9175 2.979 13.8995 2.6805 13.8335C3.318 15.782 5.127 17.2145 7.278 17.261C5.604 18.5705 3.4785 19.3595 1.1775 19.3595C0.774 19.3595 0.387 19.3415 0 19.292C2.1795 20.6975 4.7625 21.5 7.548 21.5C16.602 21.5 21.552 14 21.552 7.499C21.552 7.2815 21.5445 7.0715 21.534 6.863C22.5105 6.17 23.331 5.3045 24 4.3085Z" fill="#B8B5F8"/>
</svg>
